<?xml version="1.0" standalone="no"?>
<!DOCTYPE svg PUBLIC "-//W3C//DTD SVG 20010904//EN"
 "http://www.w3.org/TR/2001/REC-SVG-20010904/DTD/svg10.dtd">
<svg version="1.0" xmlns="http://www.w3.org/2000/svg"
 width="505.000000pt" height="484.000000pt" viewBox="0 0 505.000000 484.000000"
 preserveAspectRatio="xMidYMid meet">

<g transform="translate(0.000000,484.000000) scale(0.100000,-0.100000)"
fill="#000000" stroke="none">
<path d="M2536 4291 c-9 -14 4 -41 19 -41 18 0 26 25 12 39 -13 13 -24 14 -31
2z"/>
<path d="M2280 4282 c0 -5 6 -17 14 -28 11 -15 17 -16 27 -7 16 16 4 43 -21
43 -11 0 -20 -4 -20 -8z"/>
<path d="M2210 4266 c0 -7 7 -19 15 -26 19 -16 41 1 32 24 -8 20 -47 21 -47 2z"/>
<path d="M2700 4251 c-12 -23 12 -54 35 -45 20 8 19 50 -1 58 -22 8 -22 8 -34
-13z"/>
<path d="M2140 4235 c0 -22 4 -26 23 -23 14 2 22 10 22 23 0 13 -8 21 -22 23
-19 3 -23 -1 -23 -23z"/>
<path d="M2264 4172 c-17 -2 -23 -12 -27 -43 -7 -55 -20 -67 -88 -81 -46 -9
-58 -16 -54 -27 3 -8 9 -34 12 -57 5 -42 5 -42 43 -37 37 5 37 5 44 -37 4 -24
5 -44 4 -45 -2 -1 -57 -19 -123 -40 -66 -20 -168 -58 -227 -85 l-106 -47 -19
26 c-11 14 -23 31 -27 38 -10 17 89 66 352 174 l23 9 -30 43 c-17 23 -38 52
-48 64 l-18 22 -147 -73 -147 -73 -22 24 c-13 12 -27 23 -32 23 -9 0 -5 -38 8
-71 4 -11 -12 -32 -54 -68 l-61 -53 -26 21 c-24 19 -28 19 -47 6 -38 -27 -83
-19 -130 23 -94 83 -77 81 -154 22 -59 -45 -72 -51 -101 -45 l-33 6 6 -45 c6
-39 3 -53 -24 -102 l-31 -58 29 -30 c21 -22 31 -43 33 -71 2 -30 7 -39 18 -36
51 13 59 12 69 -7 9 -16 2 -33 -37 -98 -46 -77 -48 -79 -89 -82 -31 -2 -48
-10 -63 -29 -24 -31 -26 -59 -5 -71 14 -7 12 -15 -9 -64 -14 -31 -32 -81 -41
-112 -12 -42 -21 -56 -35 -56 -19 0 -31 -27 -45 -98 -6 -30 -4 -34 24 -45 29
-10 31 -15 31 -59 l0 -47 48 14 c26 8 68 15 93 15 50 0 169 -32 206 -56 21
-13 22 -12 28 34 23 174 112 399 212 541 63 88 190 219 277 285 111 85 270
160 441 207 102 29 359 37 481 16 339 -60 648 -259 827 -533 67 -103 111 -194
146 -304 26 -80 51 -201 51 -242 0 -20 4 -28 13 -25 151 65 192 78 264 84 l79
6 -4 28 c-3 24 0 29 23 35 24 6 26 10 21 38 -4 17 -9 48 -13 69 -4 29 -10 37
-27 37 -18 0 -27 17 -60 112 -37 104 -38 112 -21 124 16 12 16 15 -5 48 -22
37 -47 49 -89 44 -21 -3 -32 9 -75 81 l-50 84 23 18 c28 23 44 24 61 4 23 -27
33 -17 26 27 -6 37 -4 44 26 75 l32 33 -32 63 c-28 54 -32 70 -26 107 l7 43
-33 -6 c-28 -6 -40 -1 -97 44 -73 57 -57 60 -150 -23 -45 -41 -94 -50 -132
-26 -15 9 -24 8 -46 -6 -30 -20 -37 -17 -107 46 -36 33 -37 34 -25 75 13 52 5
64 -26 35 -13 -12 -27 -22 -31 -22 -4 0 -71 32 -149 70 l-142 70 -17 -22 c-26
-33 -70 -109 -66 -113 1 -2 50 -22 108 -45 104 -41 260 -120 260 -131 0 -3
-13 -18 -30 -34 l-29 -28 -88 40 c-99 46 -232 94 -311 113 l-53 12 3 42 3 41
41 -3 c41 -2 42 -1 48 35 3 21 9 47 12 59 5 19 -1 22 -65 33 -74 13 -74 13
-87 84 -5 32 -10 37 -33 37 -14 0 -91 2 -171 3 -80 1 -155 1 -166 -1z m240
-167 c49 -49 42 -131 -15 -160 -71 -37 -148 9 -149 88 0 84 106 130 164 72z
m-44 -204 c0 -20 -17 -31 -37 -24 -7 3 -13 13 -13 24 0 14 7 19 25 19 18 0 25
-5 25 -19z m-1223 -103 c29 -27 29 -51 1 -78 -36 -33 -73 -24 -102 27 -8 15
41 73 62 73 9 0 26 -10 39 -22z m2477 -9 c31 -37 32 -43 6 -69 -28 -28 -64
-25 -89 6 -12 15 -21 30 -21 34 0 17 43 60 60 60 10 0 30 -14 44 -31z m-2244
-76 c61 -42 68 -97 19 -156 -27 -33 -35 -37 -79 -37 -42 0 -52 4 -74 31 -43
50 -32 128 22 162 35 21 81 21 112 0z m2078 -28 c45 -49 44 -95 -2 -141 -19
-19 -41 -34 -49 -34 -36 0 -137 100 -137 136 0 20 41 66 70 77 34 14 85 -2
118 -38z m-1996 -142 c18 -20 11 -50 -16 -72 -13 -11 -20 -11 -41 3 -30 20
-31 26 -4 60 24 30 40 33 61 9z m1878 -8 l23 -25 -23 -25 c-26 -28 -47 -22
-69 19 -11 21 -12 28 -1 41 18 22 43 19 70 -10z m-2200 -63 c0 -19 -98 -173
-104 -163 -8 12 2 33 53 113 33 53 51 70 51 50z m2495 -113 c43 -80 23 -79
-30 1 -57 90 -72 132 -27 82 16 -18 42 -56 57 -83z m-2511 -147 c0 -4 -17 -42
-37 -84 -37 -80 -97 -258 -97 -291 0 -16 -5 -18 -26 -13 -15 4 -39 10 -55 13
-18 3 -29 12 -29 22 0 49 80 294 122 371 27 51 26 51 76 19 26 -16 47 -33 46
-37z m2641 -175 c18 -56 37 -123 40 -148 l7 -45 -49 -11 c-26 -7 -51 -9 -54
-5 -4 4 -19 50 -34 102 -14 52 -42 134 -61 181 -19 48 -34 91 -34 97 0 10 41
41 70 53 20 9 70 -90 115 -224z"/>
<path d="M1975 4155 c-140 -39 -140 -38 -143 -73 -2 -18 -1 -32 2 -32 3 0 40
11 82 25 42 14 89 25 105 25 32 0 39 23 17 52 -12 14 -19 15 -63 3z"/>
<path d="M2843 4136 c-8 -26 -8 -33 1 -30 6 2 51 -9 101 -26 90 -30 110 -29
103 6 -2 14 -28 28 -93 51 -50 17 -93 32 -96 32 -3 1 -10 -14 -16 -33z"/>
<path d="M1678 4039 c-38 -19 -46 -33 -29 -43 10 -7 73 34 79 52 5 17 -6 15
-50 -9z"/>
<path d="M3150 4047 c0 -15 51 -47 75 -47 29 0 11 23 -33 41 -31 13 -42 15
-42 6z"/>
<path d="M1404 3955 c-4 -15 -1 -32 6 -40 18 -21 57 -19 70 5 16 30 -4 60 -40
60 -23 0 -31 -5 -36 -25z"/>
<path d="M3412 3968 c-7 -7 -12 -22 -12 -35 0 -28 36 -46 63 -31 33 17 15 78
-23 78 -9 0 -21 -5 -28 -12z"/>
<path d="M2262 3594 c-273 -46 -508 -191 -682 -421 -130 -171 -210 -414 -210
-635 l0 -80 46 41 c26 23 51 41 57 41 5 0 7 15 5 32 -8 49 10 184 33 263 55
182 184 369 333 480 180 134 343 192 566 202 226 9 398 -38 583 -160 203 -133
352 -334 416 -559 13 -46 31 -83 50 -102 33 -35 49 -64 68 -121 12 -38 13 -36
7 40 -24 360 -236 682 -574 873 -178 100 -470 145 -698 106z"/>
<path d="M2420 3404 c-9 -25 -21 -39 -40 -46 -42 -14 -43 -33 -5 -51 22 -11
38 -28 46 -51 7 -20 16 -36 20 -36 4 0 16 17 26 37 10 21 27 42 38 48 49 24
49 27 11 47 -22 11 -43 33 -53 53 -9 19 -20 35 -24 35 -4 0 -13 -16 -19 -36z"/>
<path d="M972 3398 c2 -15 10 -23 23 -23 13 0 21 8 23 23 3 18 -1 22 -23 22
-22 0 -26 -4 -23 -22z"/>
<path d="M3867 3413 c-15 -14 -7 -43 12 -43 26 0 36 17 21 35 -14 16 -23 19
-33 8z"/>
<path d="M2109 3363 c-1 -4 0 -19 0 -33 1 -15 -7 -34 -18 -45 -30 -26 -26 -45
7 -45 16 0 37 -9 47 -20 26 -29 42 -25 42 10 0 17 9 40 21 53 25 27 20 37 -19
37 -15 0 -29 6 -32 14 -7 17 -46 41 -48 29z"/>
<path d="M2736 3341 c-9 -10 -30 -21 -47 -25 -34 -6 -38 -21 -9 -36 11 -6 22
-26 26 -46 l6 -35 22 20 c13 12 36 21 54 21 38 0 44 27 12 48 -13 8 -20 23
-20 42 0 35 -18 39 -44 11z"/>
<path d="M833 3284 c-7 -20 17 -37 34 -23 15 13 6 39 -13 39 -8 0 -17 -7 -21
-16z"/>
<path d="M3995 3280 c-4 -7 -3 -16 3 -22 14 -14 45 -2 40 15 -6 16 -34 21 -43
7z"/>
<path d="M1850 3177 c0 -19 -6 -37 -12 -40 -23 -7 11 -36 40 -35 15 0 37 -3
48 -7 19 -6 21 -4 17 19 -3 14 0 33 7 41 18 22 5 44 -27 43 -15 0 -38 3 -50 7
-21 7 -23 4 -23 -28z"/>
<path d="M3007 3199 c-9 -6 -26 -8 -36 -4 -29 9 -46 -19 -28 -45 8 -12 13 -30
10 -41 -6 -20 11 -26 23 -8 4 6 20 8 39 5 22 -5 36 -2 45 9 10 12 9 16 -4 21
-12 5 -16 16 -14 37 3 33 -8 42 -35 26z"/>
<path d="M690 3120 c-10 -24 -10 -37 -3 -49 8 -13 8 -29 0 -59 -6 -23 -9 -43
-6 -46 2 -2 29 -7 60 -11 l57 -7 15 48 c37 116 38 124 12 134 -13 5 -46 12
-73 16 -48 6 -49 5 -62 -26z"/>
<path d="M4068 3134 l-47 -14 15 -48 c8 -26 19 -64 26 -85 l11 -38 46 7 c74
11 81 17 66 61 -9 26 -10 42 -2 53 6 11 6 27 0 46 -12 35 -44 40 -115 18z"/>
<path d="M577 2973 c-12 -12 -7 -41 8 -47 22 -8 49 23 34 40 -12 15 -31 18
-42 7z"/>
<path d="M4247 2974 c-4 -4 -7 -16 -7 -26 0 -13 7 -18 26 -18 21 0 25 4 22 22
-3 23 -27 35 -41 22z"/>
<path d="M2300 2946 c-212 -22 -298 -40 -353 -75 -18 -11 -84 -72 -147 -136
-103 -103 -116 -113 -121 -93 -4 19 -12 23 -43 22 -56 -2 -86 -22 -86 -56 0
-23 7 -32 31 -42 l32 -13 -49 -28 c-162 -91 -248 -168 -292 -262 -24 -52 -27
-69 -27 -168 1 -60 4 -120 9 -132 8 -21 7 -21 -33 -11 -38 10 -53 29 -32 43 6
3 7 43 4 93 -6 93 8 166 48 244 18 36 18 40 3 71 -43 85 -116 129 -254 152
l-45 8 34 14 c26 11 44 12 83 4 98 -22 156 -65 198 -148 33 -65 44 -43 28 57
-15 94 -8 88 -153 140 -116 41 -157 40 -243 -1 -54 -26 -84 -34 -156 -39 l-89
-6 -38 -43 c-21 -23 -52 -77 -70 -119 -45 -107 -49 -179 -15 -307 15 -54 24
-106 21 -116 -4 -10 13 -55 39 -108 53 -105 53 -105 225 -123 l103 -12 24 -38
c26 -41 34 -43 99 -27 43 11 45 10 77 -23 18 -18 44 -40 57 -49 15 -9 21 -20
17 -27 -11 -19 -61 -14 -89 8 -34 27 -47 25 -47 -5 0 -26 -24 -56 -69 -87
l-23 -17 20 -28 c32 -46 54 -122 47 -166 l-7 -38 34 6 c27 5 38 2 53 -15 10
-11 33 -30 51 -40 38 -24 71 -16 119 29 17 16 46 31 65 35 19 3 44 16 56 27
l23 21 33 -20 33 -20 43 39 44 38 -39 46 c-36 43 -40 44 -80 39 -53 -8 -103
21 -127 71 -16 33 -16 37 3 80 11 25 25 45 30 45 6 0 37 -24 68 -54 100 -93
177 -155 221 -178 23 -13 42 -27 42 -32 0 -5 -12 -28 -27 -52 -29 -45 -48 -53
-84 -34 -24 13 -24 11 3 -64 28 -81 36 -91 57 -72 15 13 24 11 86 -26 39 -22
101 -56 139 -74 38 -18 74 -39 82 -45 7 -6 17 -9 22 -7 11 4 115 138 110 142
-1 1 -46 20 -98 41 -123 50 -240 106 -240 114 0 3 6 14 14 23 12 16 18 15 92
-17 43 -19 138 -51 211 -71 137 -39 148 -47 136 -94 -4 -17 -12 -20 -42 -18
l-36 3 -3 -53 c-3 -58 -4 -57 70 -67 45 -6 48 -8 58 -45 6 -21 17 -41 26 -44
22 -9 337 -7 351 2 6 4 15 23 20 42 9 33 12 35 69 45 46 8 59 14 58 28 0 9 -1
35 -2 58 l-2 41 -37 -4 c-38 -3 -38 -3 -38 36 l0 38 90 23 c106 27 260 81 293
102 18 11 26 12 38 2 37 -30 0 -56 -196 -135 -57 -23 -106 -47 -108 -53 -2 -7
13 -32 35 -58 21 -25 46 -55 55 -66 15 -20 18 -20 35 -5 10 9 54 34 99 56 44
22 104 54 133 71 49 29 53 30 75 15 13 -8 27 -11 29 -7 8 13 36 137 32 141 -2
2 -13 -2 -25 -8 -13 -7 -25 -8 -29 -3 -3 5 -20 29 -38 55 l-32 45 82 56 c45
31 116 90 157 132 41 41 78 75 83 75 5 0 22 -13 38 -29 43 -43 40 -83 -11
-134 -39 -38 -42 -40 -91 -34 -49 6 -52 5 -90 -35 -21 -23 -39 -44 -39 -48 0
-3 18 -23 39 -44 l39 -38 31 23 31 23 23 -22 c13 -12 31 -22 40 -22 9 0 46
-20 83 -45 36 -25 71 -45 78 -45 8 0 36 18 64 41 44 34 56 39 84 34 l33 -6 0
63 c0 60 15 106 47 150 10 13 7 21 -21 43 -17 15 -41 45 -52 67 l-20 39 -34
-21 c-39 -24 -71 -20 -80 10 -8 24 4 48 15 30 5 -8 19 0 43 26 l35 38 58 -16
c31 -9 62 -14 68 -12 6 2 23 22 36 44 15 25 32 40 45 40 59 1 216 19 253 29
38 11 45 18 74 74 53 105 109 284 115 367 4 62 0 91 -21 162 -14 48 -39 109
-56 136 -29 47 -33 50 -93 62 -34 6 -96 25 -137 41 -111 44 -169 47 -260 14
-41 -15 -110 -40 -153 -55 -43 -16 -81 -31 -84 -34 -7 -7 -32 -132 -33 -163 0
-13 5 -22 11 -20 6 1 22 -29 34 -68 l24 -70 1 60 c1 33 5 78 9 100 l8 40 7
-55 c10 -78 3 -335 -8 -292 -5 17 -12 32 -16 32 -5 0 -17 14 -28 32 l-20 31
-12 -59 c-6 -32 -18 -80 -25 -106 -7 -25 -11 -49 -8 -52 16 -15 -24 -3 -69 21
-40 22 -48 31 -43 47 3 12 13 46 21 76 32 113 19 433 -21 509 -8 16 -37 46
-63 68 -27 21 -60 53 -73 71 -95 130 -118 148 -225 178 -79 22 -608 29 -794
10z m505 -98 c3 -3 -19 -61 -51 -127 -31 -67 -59 -119 -62 -116 -3 2 10 45 28
95 17 50 30 93 27 96 -2 2 -116 -16 -253 -40 -137 -25 -296 -52 -354 -61 -58
-8 -138 -20 -178 -27 -40 -6 -74 -9 -76 -7 -3 2 21 35 52 72 45 56 53 70 41
79 -12 8 -11 9 2 5 9 -3 21 -1 27 5 26 26 180 37 484 35 168 -1 309 -5 313 -9z
m228 -21 c17 -34 36 -110 37 -139 0 -22 -77 -45 -93 -29 -15 15 -100 14 -120
-1 -9 -7 -26 -35 -38 -63 -28 -63 -39 -35 -13 34 25 68 80 175 97 189 15 13
84 40 103 41 7 1 19 -14 27 -32z m117 27 c24 -5 43 -22 76 -67 25 -33 41 -64
37 -68 -8 -8 -125 -41 -129 -36 -1 1 -11 34 -23 72 -12 39 -24 78 -27 88 -6
19 10 22 66 11z m214 -246 c19 -13 35 -26 36 -29 0 -3 -39 -20 -87 -38 l-87
-31 -23 28 c-12 15 -22 30 -23 33 0 3 19 12 43 18 23 7 53 19 67 27 33 18 33
18 74 -8z m674 -23 c72 -22 182 -72 182 -84 0 -11 -67 -34 -161 -56 l-66 -15
-124 44 -124 44 50 22 c79 35 148 59 171 60 11 0 44 -7 72 -15z m-853 -54 l14
-28 -102 -31 c-56 -17 -139 -41 -184 -54 -46 -13 -83 -27 -83 -31 0 -5 16 -35
35 -66 34 -55 55 -110 55 -141 -1 -8 -9 7 -20 33 -42 108 -105 154 -194 143
-78 -10 -134 -15 -211 -19 l-70 -4 50 24 c101 47 666 217 688 206 4 -3 14 -17
22 -32z m-739 -8 c128 -5 162 -9 139 -16 -73 -23 -305 -112 -427 -164 l-133
-56 -200 7 c-283 9 -375 16 -375 31 0 17 78 88 138 126 57 36 123 56 222 68
95 11 416 13 636 4z m1669 -83 c66 16 125 30 130 29 14 -1 -88 -36 -171 -60
l-71 -19 -92 30 c-98 33 -181 67 -181 74 0 2 60 -16 133 -41 l132 -44 120 31z
m-3413 -106 c-51 -36 -66 -121 -36 -209 15 -45 12 -85 -7 -85 -6 0 -20 21 -32
48 -18 38 -22 65 -22 147 0 86 3 106 24 145 40 77 42 78 70 21 l25 -51 -22
-16z m3640 -69 c2 -66 -15 -162 -33 -195 -5 -9 -9 63 -9 166 0 99 3 184 7 188
12 12 34 -84 35 -159z m-3302 123 c24 -13 53 -35 64 -50 26 -36 33 -122 13
-170 -22 -51 -88 -98 -140 -98 -83 0 -177 75 -177 141 0 66 46 123 107 135 62
11 142 -71 127 -130 -11 -45 -57 -86 -96 -86 -64 0 -109 82 -74 135 13 20 21
23 47 18 27 -5 31 -3 27 13 -2 10 -16 23 -32 29 -25 9 -31 6 -57 -23 -67 -75
-13 -201 87 -202 70 0 142 87 130 155 -15 80 -109 138 -186 115 -29 -8 -32 -8
-20 4 17 16 72 34 110 35 14 1 46 -9 70 -21z m342 -95 c38 -36 39 -62 1 -38
-30 19 -53 44 -53 57 0 16 25 7 52 -19z m2058 -74 c0 -109 -36 -158 -60 -83
-12 36 -7 127 9 153 7 10 12 8 25 -10 18 -26 22 -10 5 24 -10 21 -10 21 5 3
11 -14 16 -41 16 -87z m690 87 c0 -8 7 -17 16 -20 13 -5 14 -9 4 -21 -27 -32
-69 0 -49 37 12 21 29 24 29 4z m-1793 -57 l28 -11 -28 -23 c-15 -13 -44 -27
-65 -31 -36 -7 -195 11 -216 24 -15 9 203 62 231 56 12 -2 35 -9 50 -15z
m-597 -29 c96 -6 183 -13 193 -16 25 -8 21 -24 -5 -24 -37 0 -453 32 -457 36
-12 11 16 21 51 18 24 -2 122 -8 218 -14z m1022 -11 l33 -30 -32 15 c-18 9
-42 16 -55 16 -21 0 -88 -55 -88 -73 0 -4 8 -1 17 8 12 13 27 16 57 12 100
-14 146 -161 96 -305 -22 -64 -52 -94 -88 -90 -35 4 -62 60 -77 164 -14 97
-24 117 -27 53 -1 -36 -2 -32 -7 21 l-6 65 -23 -63 c-13 -35 -25 -62 -27 -60
-7 8 16 131 35 181 30 80 67 117 119 117 32 0 48 -7 73 -31z m-1432 -29 c18
-28 30 -53 27 -56 -10 -11 -48 17 -57 42 -10 25 -13 64 -6 64 2 0 18 -23 36
-50z m-163 -7 c-4 -20 -19 -70 -33 -111 -25 -68 -32 -77 -81 -110 -45 -29 -56
-33 -64 -21 -5 8 -9 19 -9 26 0 6 -21 15 -47 19 -66 9 -93 21 -93 38 0 26 37
38 94 31 88 -11 172 39 211 126 22 49 29 50 22 2z m457 -3 c61 -5 164 -11 229
-12 91 -3 120 -7 127 -18 5 -8 10 -17 10 -20 0 -8 -135 -1 -311 15 -86 8 -175
15 -197 15 -33 0 -40 3 -36 15 7 18 29 18 178 5z m2464 -47 c45 -20 80 -38 78
-40 -2 -2 -40 12 -84 32 -44 19 -85 35 -90 35 -5 0 -44 -16 -86 -35 -43 -19
-80 -35 -84 -34 -12 1 152 77 168 78 8 1 52 -15 98 -36z m51 -50 l103 -49 -41
-27 c-51 -34 -74 -34 -146 -1 l-57 26 -61 -25 c-98 -40 -95 -40 -154 -6 l-54
31 123 54 c86 38 132 53 153 50 17 -3 77 -26 134 -53z m-2409 18 c46 -6 128
-11 180 -11 92 0 120 -8 120 -34 0 -13 -218 -1 -432 24 -94 11 -173 18 -176
16 -2 -3 5 -13 15 -23 24 -24 281 -56 450 -57 62 -1 113 -2 113 -4 0 -1 -14
-30 -31 -64 l-31 -61 -46 7 c-26 4 -90 11 -142 16 -94 10 -173 22 -239 36 -31
7 -33 6 -22 -14 6 -11 16 -24 22 -28 7 -4 100 -18 207 -31 108 -13 198 -25
200 -28 2 -2 1 -8 -2 -14 -9 -13 -206 3 -358 29 l-65 11 -32 82 c-18 45 -37
94 -42 108 -10 27 -9 50 3 59 8 7 196 -5 308 -19z m596 -23 c-20 -11 -155 -25
-145 -15 6 7 100 24 139 26 23 0 23 -1 6 -11z m1379 -105 c31 -14 58 -30 61
-35 13 -20 -7 -18 -62 7 -31 14 -70 29 -85 32 -29 6 -35 13 -22 27 10 10 43 0
108 -31z m-2971 -71 c12 -6 60 -8 116 -5 108 6 130 0 160 -50 31 -51 23 -65
-14 -24 l-34 37 -119 0 -119 0 -30 33 c-37 39 -64 82 -64 99 1 7 20 -8 43 -33
23 -26 51 -51 61 -57z m676 1 c12 -11 12 -13 -2 -13 -25 0 -112 63 -116 84 -3
16 6 12 49 -19 30 -21 61 -44 69 -52z m1197 0 c-3 -10 -5 -4 -5 12 0 17 2 24
5 18 2 -7 2 -21 0 -30z m1623 2 c-13 -14 -30 -25 -37 -25 -7 0 1 13 19 29 39
35 52 32 18 -4z m-3015 -15 c0 -8 -17 -23 -37 -33 -21 -10 -38 -23 -38 -28 0
-5 16 -34 36 -64 31 -46 35 -57 24 -70 -11 -13 -20 -5 -66 62 -30 42 -54 80
-54 85 0 4 21 21 48 38 49 31 87 36 87 10z m2476 -12 c34 -18 64 -39 66 -46 7
-16 -76 -154 -88 -146 -16 10 -10 44 16 84 14 22 25 42 25 45 0 4 -25 17 -55
31 -51 24 -65 41 -48 57 10 11 18 9 84 -25z m397 12 c30 0 51 -4 48 -9 -4 -5
0 -11 6 -14 7 -2 -31 -5 -85 -6 -112 -1 -150 -14 -211 -68 -33 -30 -41 -34
-44 -20 -5 27 35 75 86 102 38 21 57 24 97 20 28 -3 74 -5 103 -5z m-672 -50
c24 -17 44 -33 44 -35 0 -9 -36 -50 -115 -133 -200 -209 -503 -349 -800 -371
-63 -4 -89 -10 -88 -19 2 -6 -6 -12 -18 -12 -11 0 -17 4 -14 10 8 12 -19 17
-127 24 -48 3 -117 13 -155 21 -66 14 -168 46 -178 57 -3 3 47 8 110 12 63 3
161 13 217 20 57 8 144 17 193 20 293 16 578 144 800 358 44 43 81 78 83 78 2
0 23 -14 48 -30z m-1958 -168 c2 -8 -3 -10 -14 -5 -16 6 -17 5 -4 -9 8 -9 18
-14 23 -11 4 2 7 -3 7 -11 0 -9 0 -19 1 -23 0 -4 -5 -9 -12 -12 -7 -2 -9 1 -5
8 5 7 1 9 -8 5 -14 -6 -21 5 -17 28 0 4 -6 5 -14 2 -21 -9 -19 23 3 35 20 12
34 10 40 -7z m1988 -6 c12 -48 -52 -104 -84 -73 -14 15 -13 20 11 57 31 46 63
53 73 16z m-1943 -74 c-6 -24 -11 -26 -32 -13 -10 7 -8 12 10 24 27 20 30 18
22 -11z m-266 -134 c41 -39 18 -98 -38 -98 -25 0 -69 38 -69 60 0 4 9 19 21
34 25 32 55 33 86 4z m2470 0 c29 -27 29 -62 1 -82 -66 -47 -131 23 -76 81 27
29 45 29 75 1z m-1199 -253 c33 -39 30 -89 -8 -127 -27 -26 -36 -30 -67 -25
-54 9 -83 42 -83 93 0 35 5 47 32 69 26 22 39 26 67 21 21 -3 45 -16 59 -31z"/>
<path d="M2683 2098 c-11 -13 -26 -33 -32 -45 -14 -28 -14 -155 1 -204 42
-142 154 -44 145 127 -6 120 -62 179 -114 122z m76 -34 c53 -67 22 -244 -43
-244 -11 0 -34 56 -36 90 -6 71 1 116 20 148 24 39 32 40 59 6z"/>
<path d="M1460 2005 c1 -32 23 -38 226 -61 251 -28 263 -28 271 -9 3 9 4 18 2
20 -3 2 -61 9 -131 15 -69 6 -181 19 -247 29 -80 11 -121 13 -121 6z"/>
<path d="M670 2821 c0 -15 6 -21 21 -21 14 0 19 5 17 17 -5 26 -38 29 -38 4z"/>
<path d="M4167 2833 c-11 -11 -8 -21 10 -27 17 -7 36 12 27 26 -6 10 -28 10
-37 1z"/>
<path d="M507 2584 c-12 -12 -8 -42 6 -47 21 -8 39 8 35 29 -3 19 -29 30 -41
18z"/>
<path d="M4377 2584 c-4 -4 -7 -16 -7 -26 0 -14 6 -19 23 -16 14 2 22 10 22
23 0 20 -25 32 -38 19z"/>
<path d="M844 1385 c-7 -29 10 -55 36 -55 24 0 42 24 38 52 -2 18 -10 24 -35
26 -28 3 -33 -1 -39 -23z"/>
<path d="M3947 1403 c-12 -12 -7 -50 8 -63 30 -25 72 11 60 51 -6 19 -54 27
-68 12z"/>
<path d="M1157 1162 c-24 -26 -22 -69 3 -77 48 -15 85 29 60 74 -13 26 -41 27
-63 3z"/>
<path d="M3652 1168 c-6 -6 -12 -24 -12 -38 0 -50 42 -66 76 -29 17 19 17 23
3 47 -16 30 -48 39 -67 20z"/>
<path d="M1421 1141 c-22 -41 20 -71 50 -35 9 11 10 20 2 32 -15 25 -40 26
-52 3z"/>
<path d="M3396 1147 c-21 -16 -18 -45 6 -61 14 -8 22 -6 40 11 21 22 21 23 3
43 -21 24 -25 24 -49 7z"/>
<path d="M1630 1076 c0 -16 87 -72 97 -62 9 9 -12 30 -56 54 -33 19 -41 20
-41 8z"/>
<path d="M3211 1076 c-6 -8 -25 -19 -41 -26 -32 -13 -43 -44 -12 -33 37 14 92
54 87 63 -9 14 -21 12 -34 -4z"/>
<path d="M1817 979 c-5 -17 2 -24 36 -39 23 -10 70 -27 105 -36 55 -15 65 -16
73 -3 5 8 9 17 9 20 0 6 -197 79 -211 79 -4 0 -9 -9 -12 -21z"/>
<path d="M2941 966 c-87 -33 -101 -45 -79 -64 10 -8 30 -5 73 9 101 33 136 51
130 67 -3 7 -5 16 -5 18 0 10 -41 0 -119 -30z"/>
<path d="M2716 884 c-7 -19 10 -44 30 -44 15 0 28 35 19 50 -10 16 -42 12 -49
-6z"/>
<path d="M2280 845 c-17 -20 -8 -49 16 -53 25 -4 35 15 23 46 -10 26 -22 28
-39 7z"/>
<path d="M2545 830 c-8 -25 11 -51 31 -43 20 8 14 57 -8 61 -10 2 -19 -5 -23
-18z"/>
</g>
</svg>
